<?xml version="1.0" encoding="UTF-8"?>
<svg width="44px" height="44px" viewBox="0 0 44 44" version="1.1" xmlns="http://www.w3.org/2000/svg" xmlns:xlink="http://www.w3.org/1999/xlink">
    <!-- Generator: Sketch 50 (54983) - http://www.bohemiancoding.com/sketch -->
    <title>xing</title>
    <desc>Created with Sketch.</desc>
    <defs></defs>
    <g id="Social-Icons" stroke="none" stroke-width="1" fill="none" fill-rule="evenodd">
        <g id="social-icons" transform="translate(-100.000000, -400.000000)">
            <g id="xing" transform="translate(100.000000, 400.000000)">
                <rect id="Rectangle" x="0" y="0" width="44" height="44"></rect>
                <circle id="Oval" stroke="#000000" stroke-width="2" cx="22" cy="22" r="21"></circle>
                <path d="M20.3248137,19.344693 C20.2206835,19.5321274 18.8826304,21.9062605 16.3106143,26.4671635 C16.0294628,26.9461624 15.6910447,27.1856583 15.2953499,27.1856583 L11.5623007,27.1856583 C11.3436273,27.1856583 11.1822279,27.097149 11.0780977,26.9201276 C10.9739674,26.7431063 10.9739674,26.5556747 11.0780977,26.3578273 L15.0298192,19.3603125 C15.0402322,19.3603125 15.0402322,19.3551061 15.0298192,19.344693 L12.5150873,14.9868657 C12.3901311,14.7577793 12.3849246,14.5651413 12.4994679,14.408946 C12.593185,14.2527507 12.7597909,14.1746542 12.9992903,14.1746542 L16.7323395,14.1746542 C17.1488604,14.1746542 17.4924849,14.4089436 17.7632234,14.8775296 L20.3248137,19.344693 Z M32.9140926,9.31700438 C33.0286358,9.48361271 33.0286358,9.6762507 32.9140926,9.89492413 L24.6670215,24.483493 L24.6670215,24.4991124 L29.9151577,34.1050759 C30.0297009,34.3133363 30.0349073,34.5059743 29.9307771,34.6829956 C29.8266469,34.8391909 29.6600411,34.9172874 29.4309546,34.9172874 L25.6979054,34.9172874 C25.2605586,34.9172874 24.916934,34.682998 24.6670215,34.214412 L19.3720271,24.4991124 C19.5594614,24.1658958 22.3240769,19.2614367 27.6659565,9.78558796 C27.926282,9.31700203 28.2594936,9.08271259 28.6656014,9.08271259 L32.4298895,9.08271259 C32.658976,9.08271259 32.8203754,9.16080907 32.9140926,9.31700438 L32.9140926,9.31700438 Z" id="Shape" fill="#000000"></path>
            </g>
        </g>
    </g>
</svg>